<mxfile host="Electron" modified="2023-12-24T00:08:11.757Z" agent="Mozilla/5.0 (X11; Linux x86_64) AppleWebKit/537.36 (KHTML, like Gecko) draw.io/22.1.11 Chrome/114.0.5735.289 Electron/25.9.8 Safari/537.36" etag="qS69fDVeAXzIYs45KKeQ" version="22.1.11" type="device">
  <diagram name="Page-1" id="GdrL0fRPoOkr_YfK28SV">
    <mxGraphModel dx="1022" dy="663" grid="1" gridSize="10" guides="1" tooltips="1" connect="1" arrows="1" fold="1" page="1" pageScale="1" pageWidth="850" pageHeight="1100" math="0" shadow="0">
      <root>
        <mxCell id="0" />
        <mxCell id="1" parent="0" />
        <mxCell id="2tXJgI_Ae8P6MSpjEB1S-7" style="edgeStyle=orthogonalEdgeStyle;rounded=0;orthogonalLoop=1;jettySize=auto;html=1;exitX=0;exitY=0.5;exitDx=0;exitDy=0;entryX=0.5;entryY=0;entryDx=0;entryDy=0;" edge="1" parent="1" source="2tXJgI_Ae8P6MSpjEB1S-1" target="2tXJgI_Ae8P6MSpjEB1S-2">
          <mxGeometry relative="1" as="geometry" />
        </mxCell>
        <mxCell id="2tXJgI_Ae8P6MSpjEB1S-8" style="edgeStyle=orthogonalEdgeStyle;rounded=0;orthogonalLoop=1;jettySize=auto;html=1;exitX=0.25;exitY=1;exitDx=0;exitDy=0;entryX=0.5;entryY=0;entryDx=0;entryDy=0;" edge="1" parent="1" source="2tXJgI_Ae8P6MSpjEB1S-1" target="2tXJgI_Ae8P6MSpjEB1S-5">
          <mxGeometry relative="1" as="geometry" />
        </mxCell>
        <mxCell id="2tXJgI_Ae8P6MSpjEB1S-9" style="edgeStyle=orthogonalEdgeStyle;rounded=0;orthogonalLoop=1;jettySize=auto;html=1;exitX=0.75;exitY=1;exitDx=0;exitDy=0;entryX=0.5;entryY=0;entryDx=0;entryDy=0;" edge="1" parent="1" source="2tXJgI_Ae8P6MSpjEB1S-1" target="2tXJgI_Ae8P6MSpjEB1S-4">
          <mxGeometry relative="1" as="geometry" />
        </mxCell>
        <mxCell id="2tXJgI_Ae8P6MSpjEB1S-10" style="edgeStyle=orthogonalEdgeStyle;rounded=0;orthogonalLoop=1;jettySize=auto;html=1;exitX=1;exitY=0.5;exitDx=0;exitDy=0;entryX=0.5;entryY=0;entryDx=0;entryDy=0;" edge="1" parent="1" source="2tXJgI_Ae8P6MSpjEB1S-1" target="2tXJgI_Ae8P6MSpjEB1S-3">
          <mxGeometry relative="1" as="geometry" />
        </mxCell>
        <mxCell id="2tXJgI_Ae8P6MSpjEB1S-1" value="Father Process" style="rounded=0;whiteSpace=wrap;html=1;" vertex="1" parent="1">
          <mxGeometry x="340" y="310" width="120" height="60" as="geometry" />
        </mxCell>
        <mxCell id="2tXJgI_Ae8P6MSpjEB1S-2" value="Child Process 1" style="rounded=0;whiteSpace=wrap;html=1;" vertex="1" parent="1">
          <mxGeometry x="40" y="430" width="120" height="60" as="geometry" />
        </mxCell>
        <mxCell id="2tXJgI_Ae8P6MSpjEB1S-3" value="Child Process 4" style="rounded=0;whiteSpace=wrap;html=1;" vertex="1" parent="1">
          <mxGeometry x="640" y="430" width="120" height="60" as="geometry" />
        </mxCell>
        <mxCell id="2tXJgI_Ae8P6MSpjEB1S-4" value="Child Process 3" style="rounded=0;whiteSpace=wrap;html=1;" vertex="1" parent="1">
          <mxGeometry x="440" y="430" width="120" height="60" as="geometry" />
        </mxCell>
        <mxCell id="2tXJgI_Ae8P6MSpjEB1S-5" value="Child Process 2" style="rounded=0;whiteSpace=wrap;html=1;" vertex="1" parent="1">
          <mxGeometry x="240" y="430" width="120" height="60" as="geometry" />
        </mxCell>
      </root>
    </mxGraphModel>
  </diagram>
</mxfile>
